<svg width="191" height="197" viewBox="0 0 191 197" fill="none" xmlns="http://www.w3.org/2000/svg">
<path d="M188.397 116.909C178.603 66.5454 148.444 82.1379 134.076 32.4498C125.432 2.56414 88.045 -11.2315 74.8943 10.8801C67.5556 8.06606 51.2776 14.2511 46.5204 42.726C41.328 73.7699 35.2652 91.2186 31.8282 94.1144C8.8753 113.457 -25.849 165.417 30.4342 191.063C70.9852 209.536 136.407 178.915 136.112 162.387C130.425 167.11 42.4122 177.571 32.8313 147.203C25.6695 124.49 65.6306 109.209 83.6713 96.6834C84.7702 97.8195 85.5226 99.1188 85.825 100.619C92.5589 133.853 168.741 70.9484 165.15 176.896C165.135 177.371 178.271 164.808 182.932 143.565C184.157 149.898 184.009 156.989 182.512 164.073C182.445 164.355 195.08 151.25 188.397 116.909Z" fill="#5B45FF"/>
<path d="M66.3534 147.982L70.2699 147.641C70.115 148.851 69.9601 150.061 69.8052 151.272C68.1162 150.136 66.7812 149.022 66.3534 147.982Z" fill="#F2A48F"/>
<path d="M158.15 140.186C155.038 142.741 151.814 145.146 148.481 147.404C146.357 148.844 144.196 150.225 141.998 151.532C141.43 151.873 134.843 153.923 134.268 154.257C134.327 149.987 141.518 132.182 141.562 128.507C119.185 130.467 92.4852 145.688 70.2551 147.634C71.9441 134.677 73.9503 121.052 76.1482 108.393C77.0849 102.519 80.1606 87.2684 80.8465 88.7831C91.1797 88.345 92.1312 72.9975 93.0974 64.3177C93.8866 63.7311 110.85 49.2449 111.78 48.9182C111.271 53.6331 110.998 57.4199 111.027 61.8155C111.359 71.7724 112.665 76.2422 117.216 80.4448C124.37 85.9542 134.01 85.1745 141.961 89.4216C144.808 91.0997 147.655 93.2307 149.528 96.067C156.955 107.138 158.239 128.7 158.15 140.186Z" fill="#F2A48F"/>
<path d="M92.6106 69.2257C100.355 74.8315 109.464 73.9405 112.193 73.1906C112.163 73.1163 112.134 73.0421 112.104 72.9604C110.541 68.8767 110.548 60.182 111.854 51.0047C111.972 50.1657 112.104 49.297 112.252 48.406L110.275 49.8019L93.1048 64.3177C93.0236 66.0997 92.854 67.7332 92.6106 69.2257Z" fill="#DD8572"/>
<path d="M136.901 102.638C143.989 116.835 136.879 125.002 129.194 129.153C123.787 132.071 118.742 133.125 116.64 132.947C114.774 132.784 112.989 132.19 111.293 131.269C95.7526 136.778 75.3296 111.377 89.9775 102.378C91.047 101.725 91.0175 103.499 92.4926 103.032C92.8024 102.95 93.3113 102.772 93.8497 102.594C94.5725 102.356 96.4607 99.5048 96.8663 98.8217C99.1528 95.0424 102.936 91.471 106.646 90.3795C106.912 90.3053 105.525 89.637 105.761 89.5108C104.5 88.8574 115.888 100.997 119.664 95.2874C119.723 95.1983 119.841 95.1538 119.945 95.1909C121.11 95.5993 127.726 97.8045 127.91 97.8268C129.444 98.2351 131.06 98.6212 132.734 99.037C135.456 99.7201 137.506 101.472 140.464 102.594L141.282 101.606C141.452 101.673 141.489 101.896 141.349 102.014C139.033 103.982 135.05 93.6613 135.507 97.255C135.655 97.6114 135.574 98.2203 136.186 98.3836C137.484 98.74 138.295 97.114 136.731 94.8197C141.71 98.9331 136.835 100.685 136.835 100.685C136.835 100.685 138.76 100.886 138.834 103.418C137.993 102.401 137.344 102.259 136.901 102.638Z" fill="#DD8572"/>
<path d="M141.57 128.507C136.422 148.614 138.642 149.371 138.185 153.73C117.164 165.402 93.0015 170.956 69.1636 169.746C67.0984 155.349 60.1801 143.134 59.0295 128.93C63.1524 119.137 63.7646 104.755 62.1051 93.0007C65.933 90.9069 76.5244 87.4691 80.8613 88.7833C86.4889 100.381 99.4257 105.282 111.536 102.794C121.722 100.99 131.701 95.1391 139.947 88.4418C143.126 89.7708 146.054 91.9538 148.4 94.5377C150.111 96.5796 151.284 99.0373 152.36 101.48C147.338 106.054 141.776 116.293 141.57 128.507Z" fill="#FFF2E9"/>
<path d="M89.0998 82.9992C86.6659 83.5784 84.8662 85.8207 83.4354 87.8403C76.6424 98.7922 76.694 112.632 77.3947 125.233H68.2268C69.643 111.548 72.0769 96.5944 81.3628 86.088C83.4058 84.0684 86.4225 81.3137 89.4317 81.8409L89.0998 82.9992Z" fill="#39BA80"/>
<path d="M116.205 79.2273C131.31 83.4744 132.328 119.248 132.336 132.769L123.212 131.908C125.034 119.649 129.179 85.9172 115.999 79.9475L116.205 79.2273Z" fill="#39BA80"/>
<path d="M136.304 154.494C116.08 165.268 93.1121 170.436 70.3805 169.5C68.6767 169.433 67.2606 168.134 66.9509 166.397C65.815 160.048 61.8469 156.922 58.8524 151.658C52.7454 140.031 57.2446 119.552 70.2994 119.649C73.7806 119.694 77.3504 120.993 80.0794 123.116C86.1569 127.312 89.8595 134.195 96.4016 132.078C99.8386 130.876 102.324 128.255 105.422 126.124C110.895 121.936 117.429 119.924 124.429 120.525C130.403 121.037 137.683 123.911 141.577 128.507C142.403 129.48 140.087 149.119 140.294 152.542C140.375 154.034 137.587 153.811 136.304 154.494Z" fill="#39BA80"/>
<path d="M108.926 52.6459L108.55 54.3091L107.369 59.3581L107.03 60.8579C106.506 61.7044 105.916 62.5508 105.26 63.4047C99.2267 71.1119 87.4994 78.819 77.6898 77.9651C70.3805 77.334 67.0099 65.105 65.2987 56.3064C65.2619 56.2025 65.2323 56.0391 65.2102 55.8535C64.9447 54.5541 64.3915 51.7623 64.5243 50.7302C64.539 50.7005 64.539 50.7005 64.5317 50.6783C65.0406 46.6539 65.4094 46.6316 65.5716 44.0849C65.7708 40.5134 63.9637 37.1276 64.4948 31.4252C64.6718 29.3834 65.166 27.0519 66.1396 24.2972C68.9275 16.4267 64.421 18.2978 69.3553 15.662C69.3775 15.6545 69.3775 15.6545 69.3996 15.6471C69.7389 15.4763 70.115 15.2833 70.5207 15.0605C70.5502 15.2165 70.6018 15.365 70.6534 15.5135C73.9651 25.5521 90.9586 26.2277 98.8948 32.539C101.38 34.5289 103.106 49.7204 108.926 52.6459Z" fill="#F2A48F"/>
<path d="M77.852 56.3809C76.1187 52.1263 77.1661 46.7506 76.9964 46.6318C76.6203 48.5772 72.9989 55.5121 72.9989 55.5121L77.852 56.3809Z" fill="#DD8572"/>
<path d="M77.9554 56.9227C77.8226 56.9524 77.6751 56.9227 77.5497 56.8411C77.026 56.4773 76.1778 56.5441 75.3517 56.6109C74.7469 56.6554 74.179 56.7074 73.6922 56.5886C73.2496 56.4773 72.9251 56.2397 72.7333 55.8833C72.4309 55.3264 72.4678 54.5022 72.8587 53.3069C72.9546 53.0173 73.257 52.8614 73.5373 52.9579C73.8176 53.0544 73.9651 53.3663 73.8766 53.6558C73.5004 54.8289 73.6111 55.2299 73.6701 55.3487C73.6922 55.3858 73.7364 55.4675 73.943 55.5195C74.2675 55.6011 74.7543 55.5566 75.278 55.5195C76.2368 55.4452 77.3284 55.3561 78.1545 55.9352C78.3979 56.106 78.4643 56.4476 78.302 56.7C78.2135 56.8188 78.0881 56.893 77.9554 56.9227Z" fill="#CE8072"/>
<path d="M68.3596 47.3146C69.6264 47.3146 70.6534 46.2508 70.6534 44.9386C70.6534 43.6264 69.6264 42.5626 68.3596 42.5626C67.0928 42.5626 66.0658 43.6264 66.0658 44.9386C66.0658 46.2508 67.0928 47.3146 68.3596 47.3146Z" fill="#19173B"/>
<path d="M69.9453 37.9444C69.842 37.9667 69.7314 37.9592 69.6281 37.9073C69.5249 37.8627 67.1131 36.8158 64.5169 38.8947C64.2809 39.0804 63.949 39.0358 63.7646 38.7982C63.5876 38.5532 63.6245 38.2117 63.8605 38.0261C66.9803 35.5313 69.9305 36.8455 70.0559 36.9049C70.3215 37.0311 70.4468 37.3578 70.3288 37.6325C70.2551 37.7959 70.1149 37.9073 69.9453 37.9444Z" fill="#332463"/>
<path d="M67.0837 44.0699C66.9141 44.1368 66.7149 44.1071 66.5674 43.9734L64.6423 42.2879C64.421 42.0949 64.3915 41.7533 64.5833 41.5232C64.7677 41.293 65.0996 41.2633 65.3209 41.4563L67.246 43.1418C67.4673 43.3349 67.4968 43.6764 67.305 43.9066C67.246 43.9883 67.1722 44.0402 67.0837 44.0699Z" fill="#19173B"/>
<path d="M66.4346 45.1023C66.3092 45.1468 66.1765 45.1468 66.0437 45.0874L64.0154 44.1592C63.7498 44.0404 63.6318 43.7211 63.7498 43.4464C63.8605 43.1717 64.1776 43.0454 64.4432 43.1717L66.4715 44.0998C66.737 44.2186 66.8551 44.5379 66.737 44.8127C66.678 44.9538 66.5674 45.0577 66.4346 45.1023Z" fill="#19173B"/>
<path d="M96.7778 41.2931C96.5713 41.3376 96.3427 41.2485 96.2246 41.048C94.4619 38.1746 91.8509 38.3156 91.7403 38.3231C91.4453 38.3453 91.1945 38.1152 91.1724 37.8107C91.1502 37.5063 91.3715 37.2464 91.6665 37.2242C91.7993 37.2167 95.0077 37.0088 97.1245 40.454C97.2793 40.7139 97.213 41.0555 96.9622 41.2188C96.9032 41.2485 96.8368 41.2782 96.7778 41.2931Z" fill="#332463"/>
<path d="M90.2061 45.8742C89.9849 45.9559 89.7341 45.8817 89.594 45.6812C89.417 45.4362 89.476 45.0872 89.712 44.909L91.8214 43.3275C92.0574 43.1418 92.3967 43.2012 92.5663 43.4537C92.7433 43.6987 92.6843 44.0477 92.4483 44.2259L90.3389 45.8074C90.2947 45.8297 90.2504 45.852 90.2061 45.8742Z" fill="#19173B"/>
<path d="M90.7962 46.9509C90.5159 47.0548 90.2135 46.9063 90.1103 46.6167C90.0144 46.3346 90.1545 46.0153 90.4348 45.9113L92.5884 45.102C92.8687 44.998 93.1711 45.1465 93.2743 45.4361C93.3702 45.7183 93.2301 46.0376 92.9498 46.1415L90.7962 46.9509Z" fill="#19173B"/>
<path d="M88.4729 49.1708C89.7397 49.1708 90.7667 48.1071 90.7667 46.7948C90.7667 45.4826 89.7397 44.4188 88.4729 44.4188C87.206 44.4188 86.1791 45.4826 86.1791 46.7948C86.1791 48.1071 87.206 49.1708 88.4729 49.1708Z" fill="#19173B"/>
<path d="M84.7261 54.8735C84.6155 56.7001 86.8208 57.4946 89.5793 57.6653C92.3378 57.8435 94.6168 57.3312 94.7275 55.5121C94.8381 53.693 92.6918 51.9481 89.9333 51.7773C87.1674 51.5991 84.8367 53.047 84.7261 54.8735Z" fill="#EE847C"/>
<path d="M65.2028 55.8611C66.737 55.2894 68.3301 54.2722 68.3744 53.4331C68.4408 52.0966 66.5452 50.9383 64.5317 50.6785C64.5317 50.6933 64.5317 50.7082 64.5243 50.723C64.3915 51.7625 64.9447 54.5617 65.2028 55.8611Z" fill="#EE847C"/>
<path d="M105.245 63.3603C106.093 61.9125 106.809 60.6279 107.369 59.3583L107.03 60.8581C106.506 61.7046 105.916 62.551 105.26 63.4049C105.252 63.3826 105.252 63.3826 105.245 63.3603Z" fill="#DD8572"/>
<path d="M108.925 52.6459L109.626 53.6186C103.519 49.1413 101.933 39.4517 98.7619 36.311C88.8786 26.5323 78.5601 29.5839 72.4236 21.3273C70.5723 25.1067 67.4893 27.8539 64.4948 31.4327C64.6718 29.3909 65.166 27.0594 66.1396 24.3048C68.9275 16.4343 64.421 18.3054 69.3553 15.6695C69.3774 15.6621 69.3774 15.6621 69.3996 15.6546C69.8126 15.573 70.2404 15.5358 70.6608 15.521C73.9724 25.5596 90.9659 26.2353 98.902 32.5465C101.38 34.529 103.106 49.7205 108.925 52.6459Z" fill="#DD8572"/>
<path d="M74.0535 14.5632C71.9072 29.7324 59.1843 20.7259 63.7793 58.9498C63.7793 58.9498 42.8843 38.4939 60.6152 19.2483C63.5507 16.0482 70.0707 11.6823 74.0535 14.5632Z" fill="#5B45FF"/>
<path d="M98.8946 34.4547C102.103 37.64 102.582 48.28 108.933 52.6459C108.645 55.5639 107.332 58.1256 105.378 61.4891C105.614 67.5256 106.595 69.9684 109.338 77.8686C114.258 92.043 117.879 97.9236 126.988 99.2081C126.988 99.2081 117.407 88.4047 120.092 77.1707C123.559 62.6325 117.946 66.8128 118.374 52.1262C119.524 12.3579 86.0389 2.14105 70.3879 15.6991C76.0229 28.7448 87.7353 23.3914 98.8946 34.4547Z" fill="#5B45FF"/>
<path d="M98.5554 45.2729C99.9641 49.2899 103.807 49.3122 106.469 51.3837C109.39 48.9335 115.114 49.3493 112.562 55.3635C110.312 60.6501 108.8 66.6272 106.823 64.9343C105.946 64.1844 104.08 61.1921 104.08 61.1921C102.015 64.0136 101.535 61.6376 97.3089 65.1719L98.5554 45.2729Z" fill="#F2A48F"/>
<path d="M35.3833 121.706L36.1282 121.394C35.8258 121.498 35.5677 121.594 35.3833 121.706ZM75.927 101.562C75.986 100.418 78.6339 91.8794 73.1981 85.3082C75.7205 71.52 69.1784 62.0086 61.3307 57.2937C54.4566 53.1728 46.5795 52.7273 42.9212 56.321C41.8886 55.9646 40.8339 55.7419 39.7644 55.6379C38.4884 55.5191 37.1977 55.5711 35.9069 55.7864C24.3125 57.7318 12.7328 72.5521 13.876 87.855C14.584 97.3145 19.5773 112.239 30.0433 118.142C30.685 118.505 31.3488 118.832 32.0274 119.122L36.5117 121.282C37.8541 120.911 39.8455 120.547 41.6009 119.597C42.0803 119.337 42.545 119.04 42.9654 118.684C43.0834 118.587 43.2014 118.476 43.3194 118.372C43.7103 117.993 44.0717 117.562 44.3668 117.058C44.8093 116.315 45.1338 115.424 45.2814 114.355C45.3182 114.095 45.3404 113.828 45.3551 113.546L66.2134 109.833C66.3904 110.093 66.7444 110.256 67.1648 110.353C67.5926 110.449 68.0868 110.486 68.5145 110.486C68.8686 110.486 69.1784 110.457 69.3701 110.427C69.1636 111.311 75.927 101.562 75.927 101.562Z" fill="#EF584E"/>
<path d="M80.5514 140.684C80.3597 141.122 80.1015 141.278 79.8065 141.248C79.3271 141.204 78.7444 140.684 78.1765 140.164C76.5317 138.657 74.4887 136.422 73.4119 133.801C72.5047 131.573 73.9208 128.559 74.5625 127.118C73.7364 126.651 70.5575 124.601 69.6282 120.384C69.3258 119.01 69.5544 117.652 70.1887 116.523L70.6239 116.731C69.3553 116.04 68.3817 114.8 68.0277 113.241C67.7991 112.231 67.7474 111.504 68.0498 110.59L69.1857 110.561C67.15 110.308 64.6939 108.125 65.3061 105.103L75.2484 102.282L75.9269 101.569C76.3621 102.156 77.1292 104.227 76.9595 105.326C76.7751 106.544 75.8901 107.799 75.3 108.474L76.0302 107.702C77.1439 108.422 77.6897 109.417 78.0069 110.85C78.3609 112.424 77.9995 113.991 77.1439 115.194L77.5643 114.667C78.678 115.387 79.2902 116.567 79.6074 117.993C79.8508 119.062 79.0542 123.384 78.6928 124.341C78.8403 124.416 78.9804 124.505 79.1132 124.586C87.3001 129.428 82.7641 135.672 80.5514 140.684Z" fill="#EF584E"/>
<path d="M80.5514 140.684C80.3597 141.122 80.1015 141.278 79.8065 141.248C79.8213 141.129 79.836 141.003 79.8655 140.884C82.1593 130.185 80.3818 127.779 77.911 125.886L79.1132 124.564C87.3 129.428 82.7641 135.672 80.5514 140.684Z" fill="#EF584E"/>
<path d="M74.2085 127.883C73.9798 127.913 73.7512 127.764 73.6774 127.527C73.5889 127.252 73.7364 126.962 74.0019 126.873C76.7678 125.938 78.6855 123.614 78.7076 123.591C78.8846 123.369 79.2018 123.346 79.4157 123.532C79.6296 123.718 79.6517 124.044 79.4747 124.267C79.3862 124.371 77.3579 126.836 74.3117 127.868C74.2748 127.868 74.238 127.876 74.2085 127.883Z" fill="#B3B9FF"/>
<path d="M107.731 165.483C107.118 165.639 106.506 165.788 105.887 165.936C105.252 166.085 104.618 166.233 103.976 166.374C100.879 167.057 97.744 167.637 94.5725 168.09C93.4588 168.253 92.3377 168.401 91.2092 168.528C90.5454 167.666 89.8743 166.85 89.2031 166.085C88.1336 164.86 87.0568 163.738 85.9873 162.714C85.3309 162.083 84.6818 161.489 84.0328 160.917C83.5607 160.501 83.0887 160.108 82.6167 159.722C82.6093 159.714 82.6019 159.714 82.6019 159.707L82.5945 159.699C82.4987 159.625 82.4101 159.543 82.3143 159.469C81.9012 159.128 81.4956 158.801 81.0899 158.482C81.0457 158.444 81.0014 158.415 80.9571 158.378C80.4556 157.984 79.9541 157.598 79.4673 157.227C79.4378 158.86 79.4525 160.575 79.4968 162.343C79.5115 162.951 79.5336 163.575 79.5558 164.191C79.6222 165.892 79.7107 167.622 79.8287 169.359C79.4525 169.367 79.0764 169.381 78.7002 169.389C78.5674 169.389 78.4273 169.396 78.2945 169.396C77.5349 169.411 76.7752 169.419 76.0081 169.419C74.4887 169.419 72.9767 169.389 71.4721 169.337C71.1033 169.322 70.7345 169.307 70.3658 169.292C70.1224 169.285 69.8864 169.27 69.643 169.255C68.9792 169.226 68.308 169.188 67.6442 169.144C61.7658 168.765 55.9907 167.993 50.341 166.85C46.159 166.003 42.0434 164.956 38.009 163.716C35.8922 163.063 33.7975 162.365 31.7249 161.608C31.5332 159.788 31.3045 157.984 31.039 156.187C30.6702 156.692 29.6672 158.162 28.3395 160.316C26.8202 159.714 25.3229 159.083 23.833 158.43C21.6867 157.487 19.5699 156.484 17.4826 155.422C16.0592 154.702 14.643 153.952 13.2417 153.173C19.7543 142.533 26.7538 136.853 32.6912 132.553C34.8522 130.987 36.8731 129.598 38.6728 128.225C39.8898 127.297 41.0035 126.376 41.9992 125.403C42.4196 124.995 42.8179 124.572 43.194 124.134C43.2456 124.074 43.2973 124.015 43.3489 123.955C43.5776 123.681 43.8062 123.398 44.0201 123.116C44.588 122.351 45.0822 121.542 45.5026 120.673C45.5026 120.673 45.5026 120.673 45.5026 120.666C46.3139 118.988 46.8302 117.072 46.9998 114.785C47.0293 114.377 47.0515 113.954 47.0588 113.523C47.0588 113.508 47.0588 113.501 47.0588 113.486L61.3159 114.451L64.1334 112.625C64.1186 113.753 64.3768 115.12 64.7308 116.397C65.2028 118.104 65.8371 119.656 66.1617 120.228C66.3313 120.532 66.5157 120.815 66.7075 121.082C67.3049 121.928 67.9908 122.626 68.7358 123.22C69.9749 124.223 71.3762 124.943 72.7997 125.648C73.0947 125.789 73.3898 125.938 73.6848 126.079C74.71 126.584 75.7278 127.096 76.7014 127.727C76.9669 127.898 77.2251 128.076 77.4832 128.262C77.8299 128.514 78.7518 129.324 78.8846 129.45C79.5927 130.148 80.286 130.846 80.9645 131.544C82.9781 133.586 84.8883 135.598 86.6954 137.565C86.7913 137.669 86.8871 137.773 86.983 137.885C87.0273 137.937 87.0789 137.989 87.1232 138.041C88.2148 139.236 89.2695 140.417 90.2873 141.582C91.342 142.785 92.3598 143.981 93.3334 145.154C93.6211 145.495 93.9013 145.837 94.1742 146.171C94.5061 146.572 94.8307 146.973 95.1552 147.374C95.1552 147.381 95.1626 147.381 95.1626 147.389C95.3765 147.656 95.5904 147.916 95.7969 148.183C96.3427 148.829 96.8516 149.482 97.3236 150.128C97.3236 150.136 97.331 150.136 97.3384 150.143C99.5953 153.046 101.609 155.838 103.401 158.519C105.031 160.947 106.462 163.271 107.731 165.483Z" fill="#F2A48F"/>
<path d="M64.7382 116.397C64.2219 117.822 52.7676 121.802 43.2014 124.148C43.253 124.089 43.3047 124.03 43.3563 123.97C43.5849 123.695 43.8136 123.413 44.0275 123.131C44.5954 122.366 45.0896 121.557 45.51 120.688C45.51 120.688 45.51 120.688 45.51 120.681C46.3213 119.003 46.8376 117.087 47.0072 114.8C47.0367 114.392 47.0588 113.969 47.0662 113.538C47.0662 113.531 47.0662 113.516 47.0662 113.501L61.3233 114.466L64.1408 112.64C64.126 113.753 64.3915 115.12 64.7382 116.397Z" fill="#DD8572"/>
<path d="M29.6229 100.232C26.3555 101.896 25.5958 106.106 28.0962 107.732C33.1116 110.991 38.2598 110.642 36.2905 108.296L29.6229 100.232Z" fill="#DD8572"/>
<path d="M66.6411 82.212C69.6577 80.9349 71.7155 81.2764 70.8673 87.0531C70.2551 91.2407 70.4764 94.181 68.6915 94.6191L66.6411 82.212Z" fill="#DD8572"/>
<path d="M69.9897 92.8076C71.3173 101.814 69.9086 110.472 62.9386 113.754C57.9527 116.33 50.3484 116.181 43.6145 113.805C39.0785 112.202 34.9629 109.566 32.315 106.098C26.4071 97.8046 20.2042 87.2834 25.4483 77.3933C32.6912 62.8329 55.3269 57.5017 63.8089 74.3193C64.93 76.3761 66.029 78.7521 66.9878 81.2988C67.7918 83.4892 68.5219 85.7984 69.0751 88.1447C69.4808 89.7039 69.761 91.278 69.9897 92.8076Z" fill="#F2A48F"/>
<path d="M56.2267 100.337C56.1382 99.7947 54.936 93.3497 55.1056 93.1715C55.2753 92.9933 58.078 96.7652 58.1665 96.9063C58.2476 97.0474 56.6397 99.7798 56.6397 99.7798L56.2267 100.337Z" fill="#DD8572"/>
<path d="M56.2783 100.886C56.1677 100.938 56.0202 100.908 55.9169 100.79C55.7842 100.641 55.7621 100.404 55.8801 100.262C56.4406 99.5793 56.7283 98.8962 56.979 98.3022C57.5986 96.8247 58.078 96.045 60.7332 97.2405C60.9029 97.3147 61.0061 97.5375 60.9619 97.7231C60.9176 97.9161 60.7406 98.0052 60.5636 97.931C58.314 96.9212 58.0928 97.4409 57.5691 98.6883C57.3109 99.2972 56.9938 100.055 56.3742 100.812C56.3521 100.849 56.3152 100.871 56.2783 100.886Z" fill="#CE8072"/>
<path d="M38.7244 94.0401C38.7834 94.0104 38.835 93.9584 38.8645 93.8916C39.2849 92.7704 40.7305 91.278 41.564 90.8845C41.6967 90.8177 41.7557 90.6543 41.6967 90.5207C41.6377 90.3796 41.4755 90.3202 41.3427 90.387C40.3913 90.8325 38.8572 92.414 38.363 93.6985C38.3114 93.8396 38.3777 94.003 38.5105 94.0549C38.5916 94.0772 38.6654 94.0698 38.7244 94.0401Z" fill="#1E063D"/>
<path d="M62.9828 81.3659C63.0418 81.3362 63.1008 81.2842 63.1229 81.2099C63.1745 81.0689 63.1008 80.9055 62.9606 80.8535C61.7142 80.3857 59.5531 80.5565 58.5943 81.0095C58.4615 81.0763 58.4025 81.2396 58.4615 81.3733C58.5205 81.5144 58.6828 81.5738 58.8156 81.507C59.59 81.1431 61.5962 80.9203 62.7763 81.3659C62.85 81.403 62.9238 81.3956 62.9828 81.3659Z" fill="#1E063D"/>
<path d="M65.5495 88.0259C65.579 88.011 65.6085 87.9888 65.638 87.9665L66.9067 86.771C67.0468 86.6374 67.0542 86.4146 66.9288 86.2736C66.8034 86.1325 66.5895 86.1176 66.4494 86.2513L65.1807 87.4467C65.0406 87.5804 65.0332 87.8031 65.1586 87.9442C65.2619 88.0556 65.4241 88.0853 65.5495 88.0259Z" fill="#19173B"/>
<path d="M64.4505 87.3428C64.48 87.3279 64.5095 87.3056 64.539 87.2834L65.8077 86.0879C65.9478 85.9543 65.9552 85.7315 65.8298 85.5905C65.7044 85.4494 65.4905 85.4345 65.3504 85.5682L64.0817 86.7636C63.9416 86.8973 63.9342 87.12 64.0596 87.2611C64.1629 87.3725 64.3251 87.4022 64.4505 87.3428Z" fill="#19173B"/>
<path d="M43.135 97.7972C43.1055 97.8121 43.0686 97.8195 43.0317 97.8269L41.328 98.0348C41.1436 98.0571 40.974 97.916 40.9518 97.723C40.9297 97.53 41.0625 97.3592 41.2469 97.3369L42.9506 97.129C43.135 97.1067 43.3046 97.2478 43.3268 97.4409C43.3489 97.5893 43.2604 97.7304 43.135 97.7972Z" fill="#19173B"/>
<path d="M43.3563 96.4903C43.3268 96.5052 43.2899 96.5126 43.253 96.52L41.5493 96.7279C41.3649 96.7502 41.1952 96.6091 41.1731 96.4161C41.151 96.2231 41.2837 96.0449 41.4681 96.0226L43.1719 95.8147C43.3563 95.7924 43.5259 95.9335 43.548 96.1265C43.5702 96.2825 43.489 96.4235 43.3563 96.4903Z" fill="#19173B"/>
<path d="M69.9895 92.8078C69.7683 92.9489 69.5027 93.1048 69.1487 93.2756C67.2606 94.1592 65.5642 94.4339 65.0184 93.1865C64.4727 91.9614 65.284 89.6745 67.1721 88.7909C67.9613 88.4271 68.5882 88.1524 69.0897 88.1598C69.4732 89.6968 69.7683 91.2783 69.9895 92.8078Z" fill="#EE847C"/>
<path d="M41.2985 103.841C41.8295 105.044 43.4891 104.777 45.3109 103.916C47.1253 103.054 48.416 101.933 47.885 100.73C47.3539 99.5275 45.215 98.7033 43.3932 99.5646C41.5714 100.426 40.7674 102.638 41.2985 103.841Z" fill="#EE847C"/>
<path d="M43.4227 97.9158C43.3784 97.9232 43.3268 97.9306 43.2751 97.9232C43.0096 97.8935 42.8179 97.6485 42.8474 97.3812C43.0022 95.8591 43.9979 94.4928 45.4362 93.832C46.9113 93.1415 48.5634 93.342 49.9574 94.374C50.1713 94.5374 50.2229 94.8418 50.068 95.0646C49.9132 95.2873 49.6181 95.3393 49.3969 95.1759C48.2905 94.3518 46.9851 94.1884 45.8197 94.7304C44.7134 95.2428 43.9168 96.3268 43.7988 97.4851C43.7841 97.7079 43.6218 97.8712 43.4227 97.9158Z" fill="#19173B"/>
<path d="M59.767 91.2928C59.7449 91.3002 59.7228 91.3002 59.7006 91.3002C59.4351 91.3225 59.2065 91.1146 59.1917 90.8399C59.0958 89.4366 59.9072 87.9664 61.2126 87.1868C62.5624 86.3923 64.0817 86.474 65.402 87.4096C65.6159 87.5655 65.6749 87.8773 65.5273 88.1001C65.3725 88.3228 65.0774 88.3822 64.8635 88.2263C63.8605 87.5135 62.7025 87.4467 61.692 88.0481C60.6963 88.6421 60.0768 89.7336 60.1432 90.7656C60.1579 91.0255 59.9957 91.2408 59.767 91.2928Z" fill="#19173B"/>
<path d="M66.9951 81.3064C57.5691 67.429 54.7516 76.9553 45.7976 66.1891C44.9568 78.6482 40.2069 80.9054 38.1048 94.0328C37.7729 96.0376 37.0428 102.022 41.5345 109.358C42.486 110.873 43.1498 112.365 43.6144 113.798C39.0784 112.194 34.9628 109.558 32.315 106.091C26.4071 97.7973 20.2042 87.2761 25.4483 77.386C32.6911 62.8255 55.3269 57.4944 63.8089 74.312C64.9373 76.3836 66.0363 78.7522 66.9951 81.3064Z" fill="#DD8572"/>
<path d="M43.8357 125.285C43.7103 122.79 46.3582 115.677 41.3722 107.665C36.8805 100.329 37.6033 94.352 37.9278 92.3473C40.0446 79.2124 44.7872 76.9478 45.628 64.5035C54.6631 75.3589 57.6281 67.2285 67.2975 81.7444C67.2975 81.7444 66.8107 73.4878 65.2987 70.0574C63.4917 65.9588 52.2955 53.5442 43.7988 59.7663C26.5325 59.4768 13.3744 83.8234 32.61 106.425C39.1079 114.073 40.8117 116.798 43.8357 125.285Z" fill="#EF584E"/>
<path d="M43.7398 117.666C43.6292 122.485 37.1313 126.554 34.9997 125.945L36.1208 126.443C36.0544 127.497 35.7299 128.21 35.0808 129.116C34.122 130.534 32.6469 131.366 31.098 131.521L31.6143 131.514C31.8134 132.903 30.8989 135.397 28.9443 136.088C24.6665 137.647 22.3137 138.234 21.3032 138.352C21.3843 140.075 21.5982 143.706 19.8133 145.57C18.2866 147.121 16.3615 148.265 14.5471 149.096C14.8053 148.554 15.0118 147.96 15.1446 147.233L13.6104 149.497C13.2269 149.646 12.8581 149.809 12.5115 149.943C11.7297 150.218 10.9405 150.492 10.4389 150.329C10.1218 150.24 9.93002 149.965 9.90789 149.46C9.84889 147.99 9.67925 146.371 9.62762 144.745C9.59811 144.278 9.58336 143.81 9.58336 143.335C9.58336 142.837 9.59074 142.362 9.64237 141.894C9.90789 141.219 10.225 140.55 10.5422 139.904C10.8815 139.251 11.2576 138.612 11.7149 138.018C10.9257 138.62 10.4611 139.756 9.87102 140.305C10.5643 138.241 12.2681 134.982 16.9221 134.016C17.1802 133.972 17.4605 133.912 17.7408 133.883C17.9178 133.853 18.0801 133.831 18.2645 133.808C18.2792 132.702 20.1379 129.227 21.6794 127.891C22.8963 126.829 24.7476 125.819 26.1564 125.544L26.3555 126.265C25.9646 124.705 26.2375 122.975 27.2111 121.527C28.0961 120.235 29.0255 119.463 30.4416 119.218C30.1171 118.424 29.7778 117.473 29.9769 116.627C30.2424 115.431 29.3721 112.543 30.0433 112.142L30.4342 113.137L39.2997 120.183L43.7398 117.666Z" fill="#EF584E"/>
<path d="M18.589 135.606C15.3658 136.467 12.4894 138.212 10.5496 149.928C10.5201 150.062 10.4906 150.203 10.4611 150.322C10.1439 150.233 9.95215 149.958 9.93002 149.453C9.87102 147.983 9.70138 146.364 9.64975 144.738C9.62025 144.27 9.60549 143.803 9.60549 143.327C9.60549 142.83 9.61287 142.355 9.6645 141.887C9.93002 141.211 10.2472 140.543 10.5643 139.897C10.9036 139.244 11.2798 138.605 11.737 138.011C10.9479 138.613 10.4832 139.749 9.89314 140.298C10.4832 137.336 12.2902 134.885 16.9442 134.009C17.2024 133.965 17.4826 133.905 17.7629 133.875L18.589 135.606Z" fill="#EF584E"/>
<path d="M21.3696 139.273C21.5909 139.399 21.8785 139.347 22.0482 139.139C22.2399 138.902 22.2104 138.545 21.9818 138.345C19.5699 136.236 18.5669 133.088 18.5521 133.058C18.4562 132.761 18.1538 132.598 17.8662 132.694C17.5785 132.791 17.4236 133.11 17.5121 133.4C17.5564 133.541 18.6185 136.882 21.2737 139.206C21.3106 139.236 21.3401 139.251 21.3696 139.273Z" fill="#B3B9FF"/>
<path d="M23.833 158.437C21.6867 157.494 19.5699 156.492 17.4826 155.43C20.4181 154.851 22.8816 154.487 22.8816 154.487L23.833 158.437Z" fill="#DD8572"/>
<path d="M97.6483 150.039C92.8689 152.007 86.7398 157.531 84.0329 160.917C83.3691 161.808 83.0962 162.432 82.4766 161.385C81.8645 160.494 81.0089 158.749 80.0058 158.623C80.2123 162.075 80.6549 165.172 81.1785 169.315C56.7578 170.325 32.2118 164.281 10.9479 151.881C12.0395 150.262 13.0942 148.725 14.1341 147.262C16.9074 143.379 19.3856 140.201 22.5497 137.053C25.6622 133.964 29.2246 131.336 33.2296 129.301C36.0987 127.846 38.9605 126.562 41.9476 125.299C46.6237 135.524 53.6527 137.558 60.1359 137.053C60.7407 138.791 61.2496 141.694 61.7511 143.646C62.4813 146.899 62.5698 146.891 62.5182 143.587C62.5477 141.508 62.2011 138.375 62.474 136.504C67.541 134.12 68.8022 130.207 68.7432 123.235C72.8662 125.745 77.1367 127.831 81.208 130.482C83.9886 132.294 86.7176 134.246 89.2622 136.452C92.1608 138.961 94.7866 141.79 96.9697 145.005C97.6262 145.978 98.2531 146.988 98.8358 148.042C99.5438 149.319 98.9759 149.512 97.6483 150.039Z" fill="#FFCF3C"/>
<path d="M79.2682 146.401C79.2682 154.361 78.0291 162.172 78.2872 169.396C64.6645 169.642 50.9901 167.726 38.0016 163.724C37.6623 154.873 35.457 141.627 32.0126 129.843C33.827 128.93 36.4822 127.712 38.4146 126.836C42.8769 152.26 52.8782 162.209 65.5864 157.338C67.2754 156.395 68.544 154.94 69.525 153.21C73.8987 144.864 73.0505 134.009 72.6891 125.411C74.1569 126.294 76.0155 127.237 77.4464 128.113C78.9142 134.217 79.3272 140.238 79.2682 146.401Z" fill="#FFCF3C"/>
<path d="M64.8709 137.654C58.0559 138.76 56.8536 139.689 64.7603 139.236C56.3374 141.255 56.9422 137.357 64.8709 137.654Z" fill="#FFCF3C"/>
<path d="M64.8709 141.745C58.0559 142.852 56.8536 143.78 64.7603 143.327C56.3374 145.347 56.9422 141.448 64.8709 141.745Z" fill="#FFCF3C"/>
<path d="M59.1696 140.275C59.8132 140.275 60.3349 139.733 60.3349 139.065C60.3349 138.396 59.8132 137.854 59.1696 137.854C58.526 137.854 58.0042 138.396 58.0042 139.065C58.0042 139.733 58.526 140.275 59.1696 140.275Z" fill="#FFCF3C"/>
<path d="M59.531 144.166C60.1746 144.166 60.6964 143.624 60.6964 142.956C60.6964 142.287 60.1746 141.745 59.531 141.745C58.8874 141.745 58.3657 142.287 58.3657 142.956C58.3657 143.624 58.8874 144.166 59.531 144.166Z" fill="#FFCF3C"/>
<path d="M77.7783 159.009C77.7414 162.469 78.3462 166.85 78.597 169.827C80.0278 169.797 81.4661 169.753 82.8969 169.671C83.0887 169.664 83.2805 169.649 83.4722 169.641C84.1803 169.597 84.8883 169.552 85.589 169.5C85.825 169.486 86.0537 169.463 86.2897 169.448C86.7912 169.411 87.3002 169.367 87.8017 169.315C87.9787 169.3 88.1631 169.278 88.3401 169.263C88.5171 169.248 88.7015 169.226 88.8785 169.211C89.0556 169.196 89.2399 169.174 89.417 169.151C89.5571 169.137 89.6972 169.122 89.8374 169.107C89.9554 169.092 90.0808 169.077 90.1988 169.07C90.4348 169.04 90.6634 169.018 90.8995 168.988C91.1355 168.958 91.3715 168.929 91.6075 168.899C92.3156 168.81 93.0163 168.721 93.7243 168.617C93.7317 168.617 93.7391 168.617 93.7538 168.609C95.642 168.342 97.5154 168.03 99.3888 167.674C102.42 167.095 105.437 166.404 108.424 165.602C108.446 165.595 108.468 165.595 108.49 165.587C108.94 165.469 109.39 165.342 109.833 165.216C109.84 165.216 109.855 165.209 109.862 165.209C110.017 165.164 110.165 165.12 110.319 165.075C110.445 165.038 110.57 165.001 110.703 164.964C111.396 164.763 112.09 164.555 112.783 164.34C114.243 161.556 117.142 161.778 118.941 159.18C122.489 153.856 116.161 149.096 111.441 145.792C111.16 145.592 110.865 145.429 110.585 145.228C110.283 145.013 110.01 144.76 109.81 144.404C108.999 142.221 108.748 139.117 108.896 136.934C109.102 135.642 108.837 134.863 108.984 133.652C107.413 133.415 99.8387 132.264 98.098 131.997C98.098 131.997 98.0169 132.034 97.98 132.071C97.9579 132.071 97.9579 132.071 97.9432 132.093C97.4859 133.697 97.4637 135.494 96.645 136.994C95.7968 138.39 94.543 139.511 93.1048 140.209C92.5737 140.461 92.0205 140.662 91.4526 140.795C84.4532 143.832 80.2933 151.19 77.7783 159.009Z" fill="#F2A48F"/>
<path d="M108.977 133.66L108.889 136.942C104.544 139.066 99.2487 138.59 95.7305 138.219C95.9518 137.959 96.173 137.684 96.3796 137.41C97.4564 135.88 97.4343 133.95 97.9137 132.123C97.9137 132.123 97.9137 132.101 97.9358 132.101C97.9579 132.078 97.9579 132.078 97.9727 132.078C98.0096 132.041 98.0907 132.004 98.0907 132.004L108.977 133.66Z" fill="#DD8572"/>
<path d="M75.2042 169.842C90.4496 169.983 105.724 167.28 120.048 161.845C122.887 155.326 117.312 148.465 110.555 145.221C102.56 147.203 93.031 145.035 93.0974 140.194C81.6136 143.802 77.1071 158.534 75.2042 169.842Z" fill="#B3B9FF"/>
<path d="M111.219 145.666C105.702 147.931 94.1669 147.708 92.2197 140.558C92.5811 140.461 92.913 140.261 93.2523 140.083C95.1773 146.074 105.201 146.193 110.113 144.679C110.46 145.183 110.828 145.414 111.219 145.666Z" fill="#FFF2E9"/>
<path d="M133.958 107.999C134.393 107.65 135.013 107.806 135.787 108.794C135.78 106.373 133.943 106.121 133.943 106.121C133.943 106.121 138.656 104.576 134.002 100.5C135.433 102.742 134.622 104.272 133.383 103.9C132.749 103.707 132.918 103.039 132.719 102.712C117.459 77.5715 106.012 93.5872 92.0353 110.034C92.0353 110.034 100.466 134.93 113.771 136.459C115.777 136.689 120.631 135.82 125.889 133.177C133.361 129.405 140.375 121.787 133.958 107.999Z" fill="#FFCF3C"/>
<path d="M119.222 125.7C121.331 127.252 121.184 129.665 119.635 130.928C113.491 135.932 113.262 132.702 113.72 131.061L119.222 125.7Z" fill="#F2A48F"/>
<path d="M126.015 119.144C124.894 121.06 121.951 124.119 119.259 126.71C116.766 129.079 114.509 131.046 114.059 131.403L114.052 131.418C114.029 131.425 114.029 131.425 114.029 131.425C114.022 131.44 114.022 131.44 114.022 131.44C113.993 131.462 113.993 131.462 113.993 131.462C98.8283 145.904 73.021 115.654 89.0408 106.425C90.0808 105.831 91.2978 105.311 92.7286 104.903C93.031 104.829 93.5252 104.68 94.0341 104.517C94.7348 104.309 95.3175 103.841 95.7305 103.21C98.017 99.6535 100.812 96.6463 103.799 94.9089C107.104 93.0155 110.622 92.6665 114.037 94.8643C125.13 96.4013 133.206 106.655 126.015 119.144Z" fill="#F2A48F"/>
<path d="M99.7576 116.998C99.9567 116.649 102.442 112.551 102.368 112.365C102.287 112.179 99.2929 113.85 99.197 113.924C99.1011 113.998 99.5953 116.471 99.5953 116.471L99.7576 116.998Z" fill="#DD8572"/>
<path d="M99.5879 117.362C99.6543 117.436 99.7723 117.466 99.8756 117.421C100.016 117.362 100.082 117.206 100.038 117.065C99.7944 116.389 99.7576 115.818 99.7207 115.313C99.6322 114.065 99.4773 113.353 97.2351 113.271C97.0876 113.263 96.9622 113.382 96.9475 113.531C96.9327 113.679 97.0433 113.805 97.1835 113.813C99.0864 113.887 99.1159 114.325 99.1823 115.38C99.2191 115.892 99.2634 116.538 99.5289 117.28C99.5437 117.31 99.5658 117.34 99.5879 117.362Z" fill="#DD8572"/>
<path d="M97.7735 101.124C97.7293 101.057 97.7145 100.968 97.7293 100.879C97.7588 100.708 97.9137 100.604 98.0759 100.648C99.5142 101.034 101.483 102.646 102.147 103.715C102.243 103.864 102.206 104.057 102.074 104.153C101.941 104.25 101.756 104.198 101.66 104.049C101.122 103.188 99.3372 101.636 97.9653 101.272C97.8768 101.242 97.8104 101.19 97.7735 101.124Z" fill="#352119"/>
<path d="M112.923 117.763C112.938 117.681 112.982 117.607 113.056 117.555C113.196 117.459 113.373 117.496 113.461 117.644C114.236 118.966 114.561 121.535 114.31 122.782C114.273 122.953 114.118 123.072 113.963 123.042C113.808 123.013 113.705 122.842 113.742 122.671C113.941 121.669 113.705 119.263 112.967 118.008C112.916 117.934 112.908 117.845 112.923 117.763Z" fill="#352119"/>
<path d="M98.7987 108.073C98.3267 108.942 97.6407 108.689 96.7409 108.17C95.8411 107.643 95.0814 107.049 95.5535 106.18C96.0255 105.311 97.1318 105.029 98.0243 105.549C98.9241 106.076 99.2707 107.204 98.7987 108.073Z" fill="#19173B"/>
<path d="M106.72 120.161C107.273 120.978 107.849 121.379 108.697 120.77C109.538 120.161 109.774 119.003 109.221 118.186C108.667 117.369 107.568 116.59 106.728 117.199C105.872 117.808 106.16 119.352 106.72 120.161Z" fill="#19173B"/>
<path d="M93.6728 109.098C92.9721 109.907 91.6592 109.217 90.3611 107.999C89.8153 107.472 89.3506 106.952 89.0482 106.44C90.0882 105.846 91.3052 105.326 92.7287 104.925C92.7729 104.97 92.8393 105.022 92.8836 105.059C94.1817 106.284 94.3513 108.274 93.6728 109.098Z" fill="#EE847C"/>
<path d="M106.115 127.49C105.134 127.972 104.161 126.762 103.394 125.069C102.627 123.369 102.346 121.824 103.327 121.342C104.308 120.859 106.167 121.631 106.941 123.324C107.709 125.017 107.096 127.007 106.115 127.49Z" fill="#EE847C"/>
<path d="M126.015 119.144C124.894 121.06 122.475 123.294 119.783 125.886C118.337 126.302 116.795 127.497 114.915 128.952C114.841 128.046 116.213 124.668 116.441 124.119C117.916 120.651 112.532 117.355 117.732 110.917C115.704 110.308 115.173 110.167 111.507 111.288C109.575 111.875 110.467 106.974 108.217 106.158C105.09 105.007 106.337 101.784 101.587 103.017C101.41 101.584 101.764 99.1336 106.661 96.7279C105.525 96.2973 105.518 95.035 104.485 94.5153C107.79 92.6219 110.615 92.6887 114.037 94.8791C125.13 96.4012 133.206 106.655 126.015 119.144Z" fill="#DD8572"/>
<path d="M132.859 108.407C133.412 97.7452 130.093 91.8275 124.532 91.5453C122.238 80.4301 105.806 83.1402 98.3636 95.2133C104.264 92.4363 104.736 95.3395 107.163 96.2379C102.265 98.6585 101.919 101.101 102.088 102.534C106.838 101.302 105.584 104.517 108.719 105.668C110.969 106.492 110.069 111.385 112.001 110.798C115.667 109.677 116.205 109.833 118.233 110.435C113.034 116.887 118.418 120.184 116.943 123.636C116.707 124.193 114.833 128.032 114.914 128.952C120.822 124.364 123.301 125.752 130.447 127.906C133.442 125.819 138.059 114.927 132.859 108.407Z" fill="#FFCF3C"/>
<path d="M119.347 98.6361C115.416 97.9233 111.264 96.9284 107.347 98.2055C111.064 96.275 115.6 97.2699 119.347 98.6361Z" fill="#332463"/>
<path d="M118.292 101.064C116.109 101.532 113.771 101.755 111.713 102.69C113.498 101.146 116.05 100.871 118.292 101.064Z" fill="#332463"/>
<path d="M90.4422 169.04C93.4957 168.691 96.5123 168.231 99.4921 167.659C100.104 167.54 100.724 167.421 101.329 167.295C101.919 167.176 102.516 167.043 103.106 166.916C106.374 166.189 109.597 165.335 112.768 164.347C114.324 163.865 115.866 163.352 117.393 162.818C117.621 162.491 117.828 162.157 118.02 161.815C118.514 160.954 118.809 160.063 118.919 159.187C119.001 158.571 118.993 157.962 118.905 157.375C118.374 153.678 114.782 150.826 110.71 152.252C108.476 153.039 106.064 154.502 103.593 156.38C102.118 157.501 100.621 158.779 99.1307 160.145C98.8652 160.382 98.607 160.627 98.3415 160.872C97.39 161.771 96.4459 162.677 95.5092 163.627C95.3248 163.828 95.1183 164.028 94.9339 164.229C94.9339 164.229 94.9339 164.229 94.9192 164.229C93.3998 165.81 91.8878 167.436 90.4422 169.04Z" fill="#898FD6"/>
<path d="M151.542 97.9679C169.516 150.968 110.216 173.517 46.3286 173.822C70.6092 175.767 95.7379 187.87 122.238 186.563C146.858 185.353 170.305 170.785 179.975 148.941C193.066 119.367 151.542 97.9679 151.542 97.9679Z" fill="#5B45FF"/>
<path d="M9.26621 142.703C20.6763 170.035 58.1 140.283 90.5232 159.35C77.4905 160.531 76.185 161.206 69.665 166.099C90.6854 164.585 117.245 155.979 127.512 147.878C115.939 196.46 21.8637 194.886 7.52556 173.294C-6.8126 151.702 9.26621 142.703 9.26621 142.703Z" fill="#5B45FF"/>
</svg>
