<svg width="322" height="40" viewBox="0 0 322 40" fill="none" xmlns="http://www.w3.org/2000/svg">
<rect x="0.5" y="39.5" width="39" height="39" rx="11.5" transform="rotate(-90 0.5 39.5)" stroke="#E1DEFC"/>
<g clip-path="url(#clip0_523_663)">
<path d="M23 12H17C14.239 12 12 14.239 12 17V23C12 25.761 14.239 28 17 28H23C25.761 28 28 25.761 28 23V17C28 14.239 25.761 12 23 12ZM26.5 23C26.5 24.93 24.93 26.5 23 26.5H17C15.07 26.5 13.5 24.93 13.5 23V17C13.5 15.07 15.07 13.5 17 13.5H23C24.93 13.5 26.5 15.07 26.5 17V23Z" fill="#5B45FF"/>
<path d="M20 16C17.791 16 16 17.791 16 20C16 22.209 17.791 24 20 24C22.209 24 24 22.209 24 20C24 17.791 22.209 16 20 16ZM20 22.5C18.622 22.5 17.5 21.378 17.5 20C17.5 18.621 18.622 17.5 20 17.5C21.378 17.5 22.5 18.621 22.5 20C22.5 21.378 21.378 22.5 20 22.5Z" fill="#5B45FF"/>
<path d="M24.3 16.233C24.5944 16.233 24.833 15.9944 24.833 15.7C24.833 15.4056 24.5944 15.167 24.3 15.167C24.0056 15.167 23.767 15.4056 23.767 15.7C23.767 15.9944 24.0056 16.233 24.3 16.233Z" fill="#5B45FF"/>
</g>
<rect x="47.5" y="39.5" width="39" height="39" rx="11.5" transform="rotate(-90 47.5 39.5)" stroke="#E1DEFC"/>
<path d="M74.1831 23.7492C74.0103 24.3918 73.5036 24.8983 72.8611 25.0714C71.6873 25.3925 66.992 25.3925 66.992 25.3925C66.992 25.3925 62.2969 25.3925 61.1231 25.0836C60.4929 24.9107 59.9739 24.3917 59.8011 23.7492C59.4922 22.5755 59.4922 20.1414 59.4922 20.1414C59.4922 20.1414 59.4922 17.695 59.8011 16.5335C59.9741 15.891 60.4806 15.3845 61.1232 15.2114C62.3093 14.8902 66.9922 14.8902 66.9922 14.8902C66.9922 14.8902 71.6873 14.8902 72.8611 15.1992C73.5037 15.3721 74.0103 15.8787 74.1833 16.5212C74.4921 17.695 74.4921 20.129 74.4921 20.129C74.4921 20.129 74.5045 22.5755 74.1831 23.7492ZM65.4971 17.8926V22.3901L69.4015 20.1414L65.4971 17.8926Z" fill="#5B45FF"/>
<rect x="94.5" y="39.5" width="39" height="39" rx="11.5" transform="rotate(-90 94.5 39.5)" stroke="#E1DEFC"/>
<path d="M111.72 15.0877C111.72 14.9879 111.733 14.7725 111.761 14.4428C111.791 14.1125 111.916 13.7668 112.139 13.4039C112.361 13.0424 112.72 12.7175 113.22 12.4301C113.718 12.1441 114.438 12 115.377 12H118.023V14.8833H116.086C115.894 14.8833 115.715 14.9554 115.554 15.0974C115.394 15.2393 115.311 15.3744 115.311 15.4998V17.2936H118.022C117.994 17.6448 117.963 17.9862 117.927 18.3159L117.819 19.1872C117.776 19.4816 117.733 19.7545 117.69 20.0059H115.292V28H111.72V20.0052H109.977V17.2936H111.72V15.0877Z" fill="#5B45FF"/>
<rect x="141.5" y="39.5" width="39" height="39" rx="11.5" transform="rotate(-90 141.5 39.5)" stroke="#E1DEFC"/>
<g clip-path="url(#clip1_523_663)">
<path d="M168.857 23.5781C168.814 23.5061 168.548 22.928 167.268 21.7399C165.928 20.4959 166.108 20.6979 167.722 18.5467C168.705 17.2366 169.098 16.4366 168.975 16.0945C168.858 15.7685 168.135 15.8545 168.135 15.8545L165.731 15.8685C165.731 15.8685 165.553 15.8445 165.42 15.9235C165.291 16.0015 165.208 16.1815 165.208 16.1815C165.208 16.1815 164.827 17.1956 164.319 18.0577C163.248 19.8768 162.819 19.9728 162.644 19.8598C162.237 19.5968 162.339 18.8017 162.339 18.2377C162.339 16.4746 162.606 15.7395 161.818 15.5495C161.556 15.4865 161.364 15.4445 160.695 15.4375C159.837 15.4285 159.11 15.4405 158.699 15.6415C158.425 15.7755 158.214 16.0745 158.343 16.0915C158.502 16.1125 158.862 16.1885 159.053 16.4486C159.3 16.7836 159.291 17.5376 159.291 17.5376C159.291 17.5376 159.433 19.6128 158.96 19.8708C158.635 20.0478 158.19 19.6868 157.235 18.0357C156.745 17.1906 156.375 16.2555 156.375 16.2555C156.375 16.2555 156.304 16.0815 156.177 15.9885C156.023 15.8755 155.807 15.8395 155.807 15.8395L153.521 15.8535C153.521 15.8535 153.178 15.8635 153.052 16.0125C152.94 16.1455 153.043 16.4196 153.043 16.4196C153.043 16.4196 154.833 20.6069 156.86 22.718C158.719 24.6532 160.829 24.5262 160.829 24.5262H161.785C161.785 24.5262 162.074 24.4942 162.221 24.3351C162.357 24.1891 162.352 23.9151 162.352 23.9151C162.352 23.9151 162.333 22.632 162.929 22.443C163.516 22.257 164.27 23.6831 165.069 24.2321C165.673 24.6472 166.132 24.5562 166.132 24.5562L168.269 24.5262C168.269 24.5262 169.387 24.4571 168.857 23.5781Z" fill="#5B45FF"/>
</g>
<rect x="188.5" y="39.5" width="39" height="39" rx="11.5" transform="rotate(-90 188.5 39.5)" stroke="#E1DEFC"/>
<g clip-path="url(#clip2_523_663)">
<path fill-rule="evenodd" clip-rule="evenodd" d="M213.969 14.0061C212.39 12.4255 210.291 11.5546 208.054 11.5537C203.445 11.5537 199.694 15.3048 199.692 19.9151C199.691 21.3889 200.076 22.8275 200.808 24.0956L199.622 28.4287L204.055 27.2659C205.276 27.9322 206.651 28.2833 208.051 28.2837H208.054C212.663 28.2837 216.414 24.5323 216.416 19.9218C216.417 17.6874 215.548 15.5866 213.969 14.0061ZM208.054 26.8715H208.051C206.804 26.871 205.581 26.5358 204.514 25.9027L204.26 25.752L201.63 26.4421L202.332 23.8774L202.166 23.6144C201.471 22.5078 201.103 21.2288 201.104 19.9156C201.105 16.0836 204.223 12.966 208.057 12.966C209.913 12.9666 211.658 13.6905 212.971 15.0042C214.283 16.3179 215.005 18.0641 215.004 19.9213C215.003 23.7536 211.885 26.8715 208.054 26.8715ZM211.866 21.6661C211.658 21.5615 210.63 21.0562 210.439 20.9864C210.247 20.9166 210.108 20.8819 209.969 21.091C209.829 21.3001 209.429 21.7708 209.307 21.9101C209.185 22.0496 209.063 22.0671 208.854 21.9625C208.645 21.8579 207.972 21.6372 207.174 20.9254C206.553 20.3714 206.134 19.6872 206.012 19.4781C205.89 19.2688 206.011 19.1666 206.103 19.0517C206.33 18.7708 206.556 18.4763 206.626 18.337C206.695 18.1975 206.661 18.0755 206.608 17.9709C206.556 17.8664 206.138 16.838 205.964 16.4195C205.794 16.0122 205.622 16.0672 205.494 16.0609C205.372 16.0548 205.233 16.0535 205.094 16.0535C204.954 16.0535 204.728 16.1058 204.536 16.315C204.345 16.5242 203.805 17.0296 203.805 18.0581C203.805 19.0865 204.554 20.08 204.658 20.2195C204.763 20.3589 206.132 22.4693 208.228 23.3742C208.726 23.5897 209.115 23.7181 209.419 23.8145C209.919 23.9735 210.375 23.951 210.735 23.8973C211.136 23.8372 211.971 23.3918 212.145 22.9038C212.319 22.4157 212.319 21.9974 212.267 21.9101C212.215 21.823 212.075 21.7708 211.866 21.6661Z" fill="#5B45FF"/>
</g>
<rect x="235.5" y="39.5" width="39" height="39" rx="11.5" transform="rotate(-90 235.5 39.5)" stroke="#E1DEFC"/>
<path d="M247.283 19.7143L250.969 21.0903L252.396 25.6795C252.488 25.9734 252.847 26.082 253.086 25.887L255.141 24.2117C255.356 24.0362 255.663 24.0274 255.888 24.1908L259.595 26.8819C259.85 27.0674 260.211 26.9275 260.275 26.6192L262.991 13.5583C263.06 13.2215 262.729 12.9404 262.409 13.0645L247.278 18.9014C246.905 19.0454 246.908 19.574 247.283 19.7143ZM252.166 20.3578L259.372 15.9201C259.501 15.8406 259.634 16.0157 259.523 16.1188L253.577 21.6463C253.368 21.8409 253.233 22.1012 253.195 22.3839L252.992 23.885C252.965 24.0854 252.684 24.1053 252.628 23.9113L251.849 21.174C251.76 20.8618 251.89 20.5283 252.166 20.3578Z" fill="#5B45FF"/>
<rect x="282.5" y="39.5" width="39" height="39" rx="11.5" transform="rotate(-90 282.5 39.5)" stroke="#E1DEFC"/>
<g clip-path="url(#clip3_523_663)">
<path d="M308.398 18.5536C308.419 16.0158 306.258 13.6893 303.579 13.3676C303.526 13.3613 303.468 13.3517 303.407 13.3415C303.274 13.3195 303.137 13.2969 302.999 13.2969C302.45 13.2969 302.303 13.6825 302.264 13.9125C302.227 14.1361 302.263 14.3239 302.371 14.4708C302.552 14.718 302.872 14.7619 303.129 14.7971C303.204 14.8075 303.275 14.8172 303.335 14.8305C305.741 15.3682 306.552 16.2136 306.948 18.5996C306.957 18.6579 306.962 18.7297 306.966 18.8059C306.984 19.0911 307.02 19.6845 307.658 19.6845H307.658C307.711 19.6845 307.768 19.6799 307.827 19.6708C308.421 19.5806 308.403 19.0382 308.394 18.7775C308.391 18.7041 308.389 18.6347 308.395 18.5885C308.397 18.5769 308.397 18.5652 308.398 18.5536Z" fill="#5B45FF"/>
<path d="M302.843 12.436C302.914 12.4411 302.982 12.446 303.038 12.4546C306.989 13.0623 308.807 14.9346 309.31 18.917C309.319 18.9847 309.32 19.0673 309.321 19.1547C309.327 19.4659 309.337 20.1131 310.032 20.1266L310.054 20.1268C310.272 20.1268 310.445 20.061 310.569 19.9312C310.785 19.7049 310.77 19.3687 310.758 19.0984C310.755 19.0321 310.752 18.9697 310.753 18.915C310.803 14.842 307.278 11.1486 303.208 11.0112C303.191 11.0107 303.175 11.0116 303.159 11.0139C303.151 11.015 303.136 11.0165 303.111 11.0165C303.07 11.0165 303.02 11.013 302.967 11.0094C302.903 11.005 302.831 11 302.757 11C302.109 11 301.986 11.4606 301.97 11.7352C301.934 12.3698 302.548 12.4145 302.843 12.436Z" fill="#5B45FF"/>
<path d="M309.119 24.0644C309.035 24.0002 308.949 23.9338 308.867 23.8683C308.436 23.5211 307.977 23.201 307.533 22.8915C307.441 22.8273 307.349 22.7631 307.257 22.6987C306.688 22.2993 306.177 22.1052 305.694 22.1052C305.044 22.1052 304.476 22.4647 304.008 23.1734C303.801 23.4876 303.549 23.6404 303.239 23.6404C303.056 23.6404 302.847 23.5881 302.62 23.4848C300.785 22.6525 299.474 21.3764 298.725 19.692C298.362 18.8779 298.48 18.3457 299.117 17.9126C299.479 17.6668 300.153 17.2093 300.106 16.3333C300.052 15.3384 297.856 12.345 296.932 12.005C296.54 11.861 296.129 11.8596 295.707 12.0016C294.643 12.3591 293.88 12.9868 293.5 13.8168C293.132 14.6188 293.149 15.5605 293.548 16.5401C294.702 19.3724 296.324 21.8417 298.369 23.8795C300.371 25.8742 302.832 27.5082 305.683 28.7358C305.94 28.8464 306.21 28.9067 306.406 28.9507C306.473 28.9658 306.531 28.9787 306.574 28.9902C306.597 28.9965 306.621 29 306.645 29.0002L306.667 29.0003C306.667 29.0003 306.667 29.0003 306.667 29.0003C308.008 29.0003 309.618 27.7749 310.113 26.378C310.546 25.1548 309.755 24.5501 309.119 24.0644Z" fill="#5B45FF"/>
<path d="M303.436 15.671C303.206 15.6768 302.729 15.6887 302.561 16.1753C302.482 16.4027 302.492 16.6001 302.589 16.7621C302.731 16.9998 303.004 17.0726 303.252 17.1126C304.151 17.2569 304.613 17.7543 304.706 18.6778C304.749 19.1084 305.039 19.4091 305.411 19.4091H305.411C305.438 19.4091 305.467 19.4075 305.495 19.4041C305.942 19.3508 306.159 19.0218 306.14 18.4264C306.147 17.8049 305.822 17.0994 305.269 16.5374C304.714 15.9737 304.044 15.6563 303.436 15.671Z" fill="#5B45FF"/>
</g>
<defs>
<clipPath id="clip0_523_663">
<rect width="16" height="16" fill="white" transform="translate(12 12)"/>
</clipPath>
<clipPath id="clip1_523_663">
<rect width="16" height="16" fill="white" transform="translate(153 12)"/>
</clipPath>
<clipPath id="clip2_523_663">
<rect width="18" height="18" fill="white" transform="translate(199 11)"/>
</clipPath>
<clipPath id="clip3_523_663">
<rect width="18" height="18" fill="white" transform="translate(293 11)"/>
</clipPath>
</defs>
</svg>
